#!OML:ASF F:\VICON\USERDATA\INSTALL\rory3\rory3.ASF
:FULLY-SPECIFIED
:DEGREES
135
root 1.6279889599530488 17.931776641520187 59.75990098587161 -3.223024657554963 0.5314430454018092 -0.9066097097965993
lfemur 8.566498053773335 -3.451420593576304 -22.019518595626344
ltibia 32.94591798414026
lfoot -3.6233927578347678 -4.661629734274817
ltoes -11.059990430844616
rfemur -21.616104145814262 -0.3805928461234749 24.86809394529755
rtibia 32.232417782197864
rfoot -12.107298572432338 -9.34913318340681
rtoes -4.003878105848135
lowerback nan -1.9662657550836806 -1.3013898220796134
upperback -0.39621436701679197 -2.5015161845883154 2.047799500847758
thorax -5.912872544630195 -1.1726082379870582 3.929663033488196
lowerneck -16.90902122364635 -3.4503429564474706 -1.8054492253269248
upperneck 21.67781407777702 -4.598649425433658 1.6017961707682509
head 9.790799948628088 -2.1140773375979403 0.2718398596112273
lclavicle -2.5664607989951894e-15 -2.759962577932284e-15
lhumerus -27.474249893456665 -0.6328288790663188 81.78281391678172
lradius 25.54245714942628
lwrist 9.238133495247856
lhand -29.65523669800964 18.54676781748229
lfingers nan
lthumb -2.7162399849715584 48.978005569478
rclavicle -2.5282157357578625e-15 -2.7240973264323173e-15
rhumerus -30.72662351539071 -19.849220214049193 -76.29967886778925
rradius 32.479313227763576
rwrist 1.7151976657412442
rhand -17.469187587108593 nan
rfingers nan
rthumb 8.682188452087658 -7.348824852348122
136
root 1.6323213780016532 17.92786974182087 58.94370804573383 -3.2810565437021406 0.49729434476733825 -1.3934068461578835
lfemur 7.235755325841284 -3.3277051850049006 -21.167077775844973
ltibia 37.069853913733695
lfoot -4.715404527751033 -4.060678938165487
ltoes -9.279428832664625
rfemur -20.257118750415454 -0.34641752647281177 25.54408876676732
rtibia 31.08817942852959
rfoot -12.722723272544062 -10.285681679735044
rtoes -3.795067674324639
lowerback nan -1.874398258435659 -0.8367618015898466
upperback -0.37424021383607103 -2.3387423426456917 2.071338698851667
thorax -5.944116545349718 -1.1374521385993004 3.6966806315254264
lowerneck -16.918744734312742 -3.4495149065208572 -1.78238740701462
upperneck 21.62000958225263 -4.592442102829189 1.55879615130283
head 9.755152758476402 -2.1166929844054714 0.2572139647205137
lclavicle -2.5673341629618275e-15 -2.760742791935755e-15
lhumerus -27.814615588002496 -0.28819004775688084 81.94778583407245
lradius 24.856269433257946
lwrist 9.666549129259375
lhand -29.677614229265068 18.52342824458085
lfingers nan
lthumb -2.7634794660124937 48.85205272862052
rclavicle -2.5277449507477556e-15 -2.7241278657140966e-15
rhumerus -30.782891198171146 -19.916409399346698 -76.30721641683019
rradius 32.446705954479036
rwrist 1.4948750865796225
rhand -17.47903703167338 nan
rfingers nan
rthumb 8.691720276946983 -7.326177677622138
137
root 1.6044448662833144 17.91178067894266 56.620378373189006 -3.411669869225901 0.13952533897097652 -2.5221183966474157
lfemur 5.327150441817565 -2.9072604429199203 -19.457988878288525
ltibia 41.64025070075198
lfoot -4.754281984307612 -2.2776976605350754
ltoes -9.812921764185504
rfemur -19.483866121208592 0.07953259845077021 26.626172618938448
rtibia 31.06160483786049
rfoot -13.728848651198472 -11.089768737522459
rtoes -3.2907683719367498
lowerback nan -1.6683057509615498 0.005382540103919364
upperback -0.365969693130668 -1.9903095698062863 2.1421122210175856
thorax -6.004231896593926 -0.9742908100792599 3.4566103169867226
lowerneck -16.950319084036753 -3.4640421224497793 -1.727429050290631
upperneck 21.536265124806597 -4.615741798123252 1.5248185312017466
head 9.71171900604483 -2.1292887251336405 0.23795853498651467
lclavicle -2.5685473110095593e-15 -2.7623790690486885e-15
lhumerus -28.19548780773418 0.06591903251424824 82.11682017930498
lradius 24.231279353079813
lwrist 10.009563192899314
lhand -29.654244528052956 18.513674407530512
lfingers nan
lthumb -2.791040350151022 48.709277956811086
rclavicle -2.5284617579595215e-15 -2.7265476692057643e-15
rhumerus -30.83272273256888 -20.067535209204394 -76.32342985434197
rradius 32.40841768675574
rwrist 1.2442062891430052
rhand -17.473696907063758 nan
rfingers nan
rthumb 8.668144248055944 -7.368327761763465
138
root 1.5958362244957582 17.90640234218838 56.84060592504476 -3.467325909698059 -0.0005867769475914053 -3.173695205427306
lfemur 3.0991814951801704 -2.4116886301727525 -18.025717582369204
ltibia 46.06336572118933
lfoot -5.12688838010315 -1.7794001869719611
ltoes -10.175736586973965
rfemur -17.574050563380663 0.6460457189276994 27.570254270267778
rtibia 31.28273954762051
rfoot -14.938018868058839 -11.842919497329106
rtoes -2.793748713603594
lowerback nan -1.482630745717039 0.5393714567916994
upperback -0.3460157554834095 -1.695945624318383 2.178559676397277
thorax -6.059984330639915 -0.8368345418349988 3.201643347748904
lowerneck -16.99203411131845 -3.4942732040543225 -1.653645145577447
upperneck 21.43104988110712 -4.669110586725849 1.5030102883536571
head 9.664163064843068 -2.1515965878006442 0.21532411337400797
lclavicle -2.5707384312439054e-15 -2.7647143351652627e-15
lhumerus -28.63748928317673 0.383174427504541 82.26839541381739
lradius 23.746384221230695
lwrist 10.304560645343713
lhand -29.67259071314558 18.42280737743266
lfingers nan
lthumb -2.8326805331137854 48.56246394766924
rclavicle -2.5277122634626566e-15 -2.7282939952090912e-15
rhumerus -30.910292944249232 -20.267011244364706 -76.35972304802381
rradius 32.364400152324855
rwrist 1.1468579320044325
rhand -17.478028191646988 nan
rfingers nan
rthumb 8.700662885785235 -7.285092586389254
139
root 1.5754765151394534 17.900696157145486 56.04346118815714 -3.5310935341632366 -0.10983545015882984 -3.989598085387214
lfemur 0.35089078885079417 -1.9322404665390902 -16.48558420902798
ltibia 50.154441749698876
lfoot -5.4854880179357846 -1.045217257201885
ltoes -10.241195264702498
rfemur -16.137293411605494 1.0553426209450607 28.310595755421076
rtibia 31.819752064463962
rfoot -16.027651753215267 -12.575928509568211
rtoes -2.531470903779293
lowerback nan -1.2540854400311536 1.1859709006777481
upperback -0.3268164515504859 -1.2874728708645082 2.241157380367924
thorax -6.106249924824905 -0.6401465822954784 2.8753882595549642
lowerneck -17.01898087038927 -3.542493963311891 -1.5723813148470611
upperneck 21.313238172554186 -4.75471293834861 1.4932343406346802
head 9.617158492575465 -2.1840061054787845 0.1896521556218711
lclavicle -2.573883963752067e-15 -2.767728374819296e-15
lhumerus -29.09279406244179 0.6986183277319653 82.41069882377192
lradius 23.43656994713517
lwrist 10.631901705550465
lhand -29.701727723151908 18.375874405370052
lfingers nan
lthumb -2.9046633413525704 48.44470633066781
rclavicle -2.527097933573416e-15 -2.7303746742307377e-15
rhumerus -31.048647693569386 -20.486578137980985 -76.4388242821594
rradius 32.32016866339019
rwrist 1.2840254381956075
rhand -17.45677285676339 nan
rfingers nan
rthumb 8.690254831532695 -7.268256134956201
140
root 1.5433963232008505 17.89632972303429 54.4772522447661 -3.518239193840823 -0.22463477781994518 -5.216725749666434
lfemur -2.9810575373626342 -1.4707428748712208 -14.685808519204222
ltibia 53.743966539758596
lfoot -5.370396709943252 -0.5669533489677194
ltoes -11.826481979381786
rfemur -14.186710975482564 1.5694094801290448 29.530388351593494
rtibia 32.3180039218007
rfoot -16.703558668044344 -13.10894231167459
rtoes -2.7167983615212545
lowerback nan -0.9731666115540897 2.118614023683296
upperback -0.32959394924795227 -0.7300949350048855 2.3591519203829208
thorax -6.162462557489264 -0.3521366519615483 2.4685371364547635
lowerneck -17.0237929578537 -3.608443614774055 -1.4961615113971816
upperneck 21.201536398903052 -4.870032784002021 1.4936283403274715
head 9.577686681100303 -2.2253407022644875 0.16242040861772616
lclavicle -2.5756544663899535e-15 -2.7701890266726868e-15
lhumerus -29.56410907339679 0.9869398198563593 82.53207485285536
lradius 23.275993745593382
lwrist 10.932498423207345
lhand -29.771950460954866 18.275759841511842
lfingers nan
lthumb -2.98880357503274 48.33919927743542
rclavicle -2.5267989746449713e-15 -2.73333098469046e-15
rhumerus -31.254980024410912 -20.713992175740493 -76.58500909745011
rradius 32.26716406251992
rwrist 1.5800485718961115
rhand -17.471057496418915 nan
rfingers nan
rthumb 8.716173197930326 -7.175564982033291
141
root 1.5258373233578135 17.90208892757989 55.066441822056525 -3.4491618145038445 0.10710390698791322 -5.904217046178873
lfemur -6.571018139667862 -1.227419382327121 -13.681662850114773
ltibia 56.4084168232846
lfoot -5.625732370984343 -0.004692193561687041
ltoes -12.292401199153371
rfemur -12.744420443323643 1.689793071373694 29.86421147281454
rtibia 32.978398569007545
rfoot -16.805566386276592 -13.276514776066449
rtoes -3.0809960260042972
lowerback nan -0.7695395933473136 2.739681002984955
upperback -0.3424722221057269 -0.2965743884568543 2.4283280303766057
thorax -6.215292227892362 -0.1415827711707299 1.9956158232297776
lowerneck -17.002400955293623 -3.686407894247151 -1.4433870142485519
upperneck 21.117393244971044 -5.004128270685826 1.5048571101178903
head 9.551872213559724 -2.2716137652112387 0.13784837338987027
lclavicle -2.5770149942675797e-15 -2.772690366142185e-15
lhumerus -30.041593338856142 1.2626644253632797 82.6155417159286
lradius 23.22921151815145
lwrist 11.156487764139243
lhand -29.802897627545374 18.238167724002132
lfingers nan
lthumb -3.0521669921281007 48.254015174428645
rclavicle -2.527363902557839e-15 -2.737604191233971e-15
rhumerus -31.49333322444956 -20.92272959041171 -76.77599370665565
rradius 32.197893232614426
rwrist 1.892640001543763
rhand -17.466087971569813 nan
rfingers nan
rthumb 8.68933207672955 -7.221041599217896
142
root 1.474077995281379 17.8942848265947 52.36548619655513 -3.5341988737725174 0.1814292655875 -6.665182210135667
lfemur -10.134366109379386 -1.0934287933502291 -12.984509926142444
ltibia 57.80409760064545
lfoot -6.902148284405428 -0.3105119441761466
ltoes -12.13490447984935
rfemur -11.0789728464026 1.784715453611294 30.38751370435454
rtibia 33.40158529012685
rfoot -16.297052413225884 -13.04840570871572
rtoes -3.466659927760074
lowerback nan -0.49974490540679717 3.3889473739100513
upperback -0.3595440917657759 0.22983009026773352 2.4453971912316383
thorax -6.229937846689027 0.14323715594965836 1.539637667887905
lowerneck -16.929003953953696 -3.763196400539975 -1.4178114727992488
upperneck 21.079250796498297 -5.1350797477338395 1.5219545007945403
head 9.543656122284537 -2.315795171960933 0.11852174437772747
lclavicle -2.577721306186486e-15 -2.775024478824578e-15
lhumerus -30.5090080507948 1.5258690473346972 82.6471546277374
lradius 23.273784038598855
lwrist 11.35631301593786
lhand -29.856053975084038 18.15128322788787
lfingers nan
lthumb -3.102823324085191 48.18329969840966
rclavicle -2.5282954195917713e-15 -2.7427467452890714e-15
rhumerus -31.715911923508358 -21.09305110052089 -76.95708463250642
rradius 32.118250433349054
rwrist 1.706586456421117
rhand -17.49012116779238 nan
rfingers nan
rthumb 8.71264753292194 -7.185706379375953
